# xmcd CD database file generated by Grip 2.95
# 
# Track frame offsets:
#       225
#       26727
#       57188
#       92890
#       120124
#       154505
#       191076
#       218169
#       232328
#       261970
#       289216
#       306585
# 
# Disc length: 4461 seconds
# 
# Revision: 3
# Processed by: cddbd v1.4b41PL1 Copyright (c) Steve Scherf et al.
# Submitted via: Grip 2.95
# 
DISCID=b1116a0c
DTITLE=Eb Davis and the Superband - Live at Yorkschlösschen Berlin/Germany
DYEAR=1900
DGENRE=
TTITLE0=Things Ain't Wath They Used To Be (Ellignton)
TTITLE1=Blues Town (Davis)
TTITLE2=Can't Stand Myself (Brown)
TTITLE3=This Time (Davis)
TTITLE4=Stand By Me (King)
TTITLE5=Higher Ground (Davis)
TTITLE6=Dock of the Bay (Redding/Cropper)
TTITLE7=B 4 U Accuse Me (McDaniel)
TTITLE8=Ain't Nobody But You (Davis)
TTITLE9=Honest I Do (Reed)
TTITLE10=Fool For The Ladies (Davis)
TTITLE11=Georgia (Carmichael)
EXTD=
EXTT0=
EXTT1=
EXTT2=
EXTT3=
EXTT4=
EXTT5=
EXTT6=
EXTT7=
EXTT8=
EXTT9=
EXTT10=
EXTT11=
PLAYORDER=
